<svg width="58" height="58" viewBox="0 0 58 58" fill="none" xmlns="http://www.w3.org/2000/svg">
<circle cx="29" cy="29" r="29" fill="#0056B1" fill-opacity="0.1"/>
<path d="M29 14.2899C25.146 14.2899 22.0127 17.4231 22.0127 21.2772C22.0127 25.0577 24.9694 28.1174 28.8235 28.2498C28.9412 28.2351 29.0589 28.2351 29.1471 28.2498C29.1765 28.2498 29.1912 28.2498 29.2207 28.2498C29.2354 28.2498 29.2354 28.2498 29.2501 28.2498C33.0159 28.1174 35.9726 25.0577 35.9873 21.2772C35.9873 17.4231 32.8541 14.2899 29 14.2899Z" fill="#0056B1"/>
<path d="M36.4728 32.1627C32.3686 29.4266 25.6755 29.4266 21.542 32.1627C19.6738 33.4131 18.6441 35.1048 18.6441 36.9141C18.6441 38.7234 19.6738 40.4004 21.5273 41.6361C23.5867 43.0188 26.2933 43.7102 29 43.7102C31.7067 43.7102 34.4133 43.0188 36.4728 41.6361C38.3262 40.3857 39.356 38.7087 39.356 36.8847C39.3412 35.0753 38.3262 33.3984 36.4728 32.1627Z" fill="#0056B1"/>
</svg>
