<svg width="26" height="26" viewBox="0 0 26 26" fill="none" xmlns="http://www.w3.org/2000/svg">
<path d="M22 5.82801V16.8183C22 17.6925 21.298 18.5119 20.434 18.6212L20.137 18.6577C18.175 18.9217 15.151 19.9324 13.423 20.8976C13.189 21.0341 12.802 21.0341 12.559 20.8976L12.523 20.8794C10.795 19.9233 7.78003 18.9217 5.82703 18.6577L5.56599 18.6212C4.70199 18.5119 4 17.6925 4 16.8183V5.81889C4 4.73534 4.87298 3.91586 5.94398 4.00691C7.83398 4.16171 10.696 5.12691 12.298 6.13762L12.523 6.27417C12.784 6.43807 13.216 6.43807 13.477 6.27417L13.63 6.17402C14.197 5.81891 14.917 5.46379 15.7 5.1451V8.86015L17.5 7.6491L19.3 8.86015V4.10711C19.543 4.06159 19.777 4.03424 19.993 4.01603H20.047C21.118 3.92497 22 4.73535 22 5.82801Z" stroke="#2D2D2D" stroke-width="1.5" stroke-linecap="round" stroke-linejoin="round"/>
<path d="M13 6.57471V20.2329" stroke="#2D2D2D" stroke-width="1.5" stroke-linecap="round" stroke-linejoin="round"/>
<path d="M19.3 4.10718V8.86021L17.5 7.64917L15.7 8.86021V5.14516C16.879 4.67168 18.193 4.28929 19.3 4.10718Z" stroke="#2D2D2D" stroke-width="1.5" stroke-linecap="round" stroke-linejoin="round"/>
</svg>
