<svg width="30" height="30" viewBox="0 0 30 30" fill="none" xmlns="http://www.w3.org/2000/svg">
<path d="M24.7125 14.0625H19.6625C17.15 14.0625 15.9375 12.95 15.9375 10.65V4.975C15.9375 2.675 17.1625 1.5625 19.6625 1.5625H24.7125C27.225 1.5625 28.4375 2.675 28.4375 4.975V10.6375C28.4375 12.95 27.2125 14.0625 24.7125 14.0625ZM19.6625 3.4375C17.9875 3.4375 17.8125 3.9125 17.8125 4.975V10.6375C17.8125 11.7125 17.9875 12.175 19.6625 12.175H24.7125C26.3875 12.175 26.5625 11.7 26.5625 10.6375V4.975C26.5625 3.9 26.3875 3.4375 24.7125 3.4375H19.6625Z" fill="#2D2D2D"/>
<path d="M24.7125 28.4375H19.6625C17.15 28.4375 15.9375 27.2125 15.9375 24.7125V19.6625C15.9375 17.15 17.1625 15.9375 19.6625 15.9375H24.7125C27.225 15.9375 28.4375 17.1625 28.4375 19.6625V24.7125C28.4375 27.2125 27.2125 28.4375 24.7125 28.4375ZM19.6625 17.8125C18.1875 17.8125 17.8125 18.1875 17.8125 19.6625V24.7125C17.8125 26.1875 18.1875 26.5625 19.6625 26.5625H24.7125C26.1875 26.5625 26.5625 26.1875 26.5625 24.7125V19.6625C26.5625 18.1875 26.1875 17.8125 24.7125 17.8125H19.6625Z" fill="#2D2D2D"/>
<path d="M10.3375 14.0625H5.2875C2.775 14.0625 1.5625 12.95 1.5625 10.65V4.975C1.5625 2.675 2.7875 1.5625 5.2875 1.5625H10.3375C12.85 1.5625 14.0625 2.675 14.0625 4.975V10.6375C14.0625 12.95 12.8375 14.0625 10.3375 14.0625ZM5.2875 3.4375C3.6125 3.4375 3.4375 3.9125 3.4375 4.975V10.6375C3.4375 11.7125 3.6125 12.175 5.2875 12.175H10.3375C12.0125 12.175 12.1875 11.7 12.1875 10.6375V4.975C12.1875 3.9 12.0125 3.4375 10.3375 3.4375H5.2875Z" fill="#2D2D2D"/>
<path d="M10.3375 28.4375H5.2875C2.775 28.4375 1.5625 27.2125 1.5625 24.7125V19.6625C1.5625 17.15 2.7875 15.9375 5.2875 15.9375H10.3375C12.85 15.9375 14.0625 17.1625 14.0625 19.6625V24.7125C14.0625 27.2125 12.8375 28.4375 10.3375 28.4375ZM5.2875 17.8125C3.8125 17.8125 3.4375 18.1875 3.4375 19.6625V24.7125C3.4375 26.1875 3.8125 26.5625 5.2875 26.5625H10.3375C11.8125 26.5625 12.1875 26.1875 12.1875 24.7125V19.6625C12.1875 18.1875 11.8125 17.8125 10.3375 17.8125H5.2875Z" fill="#2D2D2D"/>
</svg>
