<svg width="26" height="26" viewBox="0 0 26 26" fill="none" xmlns="http://www.w3.org/2000/svg">
<path d="M18.9461 16.8369C20.402 17.5683 21.6503 18.742 22.5614 20.2096C22.7418 20.5003 22.832 20.6456 22.8632 20.8468C22.9266 21.2558 22.6469 21.7585 22.2661 21.9204C22.0786 22 21.8678 22 21.4461 22M16.9461 12.5322C18.4278 11.7959 19.4461 10.2669 19.4461 8.5C19.4461 6.73314 18.4278 5.20411 16.9461 4.46776M14.9461 8.5C14.9461 10.9853 12.9314 13 10.4461 13C7.96084 13 5.94613 10.9853 5.94613 8.5C5.94613 6.01472 7.96084 4 10.4461 4C12.9314 4 14.9461 6.01472 14.9461 8.5ZM3.50536 19.9383C5.09966 17.5446 7.6155 16 10.4461 16C13.2768 16 15.7926 17.5446 17.3869 19.9383C17.7362 20.4628 17.9108 20.725 17.8907 21.0599C17.875 21.3207 17.7041 21.64 17.4957 21.7976C17.228 22 16.86 22 16.1238 22H4.76848C4.0323 22 3.6642 22 3.39656 21.7976C3.18817 21.64 3.01721 21.3207 3.00156 21.0599C2.98145 20.725 3.15609 20.4628 3.50536 19.9383Z" stroke="#2D2D2D" stroke-width="1.5" stroke-linecap="round" stroke-linejoin="round"/>
</svg>
