<svg width="26" height="26" viewBox="0 0 26 26" fill="none" xmlns="http://www.w3.org/2000/svg">
<path d="M7.23 19.7C8.05 18.82 9.3 18.89 10.02 19.85L11.03 21.2C11.84 22.27 13.15 22.27 13.96 21.2L14.97 19.85C15.69 18.89 16.94 18.82 17.76 19.7C19.54 21.6 20.99 20.97 20.99 18.31V7.04C21 3.01 20.06 2 16.28 2H8.72C4.94 2 4 3.01 4 7.04V18.3C4 20.97 5.46 21.59 7.23 19.7Z" stroke="#2D2D2D" stroke-width="1.5" stroke-linecap="round" stroke-linejoin="round"/>
<path d="M8.59607 11H8.60505" stroke="#2D2D2D" stroke-width="1.5" stroke-linecap="round" stroke-linejoin="round"/>
<path d="M11.3984 11H16.8984" stroke="#2D2D2D" stroke-width="1.5" stroke-linecap="round" stroke-linejoin="round"/>
<path d="M8.59607 7H8.60505" stroke="#2D2D2D" stroke-width="1.5" stroke-linecap="round" stroke-linejoin="round"/>
<path d="M11.3984 7H16.8984" stroke="#2D2D2D" stroke-width="1.5" stroke-linecap="round" stroke-linejoin="round"/>
</svg>
