<svg width="26" height="26" viewBox="0 0 26 26" fill="none" xmlns="http://www.w3.org/2000/svg">
<path d="M18.2 15.4965V12.1918C18.2 11.9945 18.2 11.8958 18.1716 11.8087C18.1465 11.7316 18.1054 11.6615 18.0515 11.6033C17.9905 11.5374 17.907 11.4933 17.7401 11.405L13 8.89937M4.68001 9.99888V17.4829C4.68001 17.8918 4.68001 18.0963 4.74034 18.2753C4.79369 18.4335 4.88062 18.5768 4.99448 18.694C5.12327 18.8266 5.29909 18.9118 5.65069 19.0821L12.3067 22.3074C12.5617 22.431 12.6893 22.4928 12.8221 22.5171C12.9398 22.5387 13.0602 22.5387 13.1779 22.5171C13.3108 22.4928 13.4383 22.431 13.6933 22.3074L20.3493 19.0821C20.7009 18.9118 20.8767 18.8266 21.0055 18.694C21.1194 18.5768 21.2063 18.4335 21.2597 18.2753C21.32 18.0963 21.32 17.8918 21.32 17.4829V9.99888M2.60001 8.89937L12.6279 3.59847C12.7644 3.52635 12.8326 3.49029 12.9041 3.4761C12.9675 3.46353 13.0325 3.46353 13.0959 3.4761C13.1674 3.49029 13.2357 3.52635 13.3721 3.59847L23.4 8.89937L13.3721 14.2003C13.2357 14.2724 13.1674 14.3084 13.0959 14.3226C13.0325 14.3352 12.9675 14.3352 12.9041 14.3226C12.8326 14.3084 12.7644 14.2724 12.6279 14.2003L2.60001 8.89937Z" stroke="#2D2D2D" stroke-width="1.5" stroke-linecap="round" stroke-linejoin="round"/>
</svg>
