<svg width="22" height="22" viewBox="0 0 22 22" fill="none" xmlns="http://www.w3.org/2000/svg">
<path d="M20.1667 13.75V8.25004C20.1667 3.66671 18.3333 1.83337 13.75 1.83337H8.25001C3.66668 1.83337 1.83334 3.66671 1.83334 8.25004V13.75C1.83334 18.3334 3.66668 20.1667 8.25001 20.1667H13.75C18.3333 20.1667 20.1667 18.3334 20.1667 13.75Z" stroke="#2D2D2D" stroke-width="1.5" stroke-linecap="round" stroke-linejoin="round"/>
<path d="M2.31 6.51746H19.69" stroke="#2D2D2D" stroke-width="1.5" stroke-linecap="round" stroke-linejoin="round"/>
<path d="M7.81 1.9342V6.3892" stroke="#2D2D2D" stroke-width="1.5" stroke-linecap="round" stroke-linejoin="round"/>
<path d="M14.19 1.9342V5.9767" stroke="#2D2D2D" stroke-width="1.5" stroke-linecap="round" stroke-linejoin="round"/>
<path d="M8.9375 13.2459V12.1459C8.9375 10.7342 9.93667 10.1567 11.1558 10.8625L12.1092 11.4125L13.0625 11.9625C14.2817 12.6684 14.2817 13.8234 13.0625 14.5292L12.1092 15.0792L11.1558 15.6292C9.93667 16.335 8.9375 15.7575 8.9375 14.3459V13.2459V13.2459Z" stroke="#2D2D2D" stroke-width="1.5" stroke-miterlimit="10" stroke-linecap="round" stroke-linejoin="round"/>
</svg>
