<svg width="26" height="26" viewBox="0 0 26 26" fill="none" xmlns="http://www.w3.org/2000/svg">
<path d="M6.04488 20.7581L11.9818 14.8945C12.3382 14.5425 12.5164 14.3665 12.7219 14.3006C12.9026 14.2426 13.0974 14.2426 13.2781 14.3006C13.4836 14.3665 13.6618 14.5425 14.0182 14.8946L19.9155 20.719M14.8 15.6667L17.3818 13.1168C17.7382 12.7648 17.9164 12.5888 18.1219 12.5228C18.3026 12.4648 18.4974 12.4648 18.6781 12.5228C18.8836 12.5888 19.0618 12.7648 19.4182 13.1168L22 15.6667M11.2 10.3333C11.2 11.3152 10.3941 12.1111 9.4 12.1111C8.40589 12.1111 7.6 11.3152 7.6 10.3333C7.6 9.35149 8.40589 8.55556 9.4 8.55556C10.3941 8.55556 11.2 9.35149 11.2 10.3333ZM8.32 21H17.68C19.1921 21 19.9482 21 20.5258 20.7094C21.0338 20.4537 21.4469 20.0457 21.7057 19.544C22 18.9735 22 18.2268 22 16.7333V9.26667C22 7.77319 22 7.02646 21.7057 6.45603C21.4469 5.95426 21.0338 5.54631 20.5258 5.29065C19.9482 5 19.1921 5 17.68 5H8.32C6.80786 5 6.05179 5 5.47423 5.29065C4.96619 5.54631 4.55314 5.95426 4.29428 6.45603C4 7.02646 4 7.77319 4 9.26667V16.7333C4 18.2268 4 18.9735 4.29428 19.544C4.55314 20.0457 4.96619 20.4537 5.47423 20.7094C6.05179 21 6.80786 21 8.32 21Z" stroke="#2D2D2D" stroke-width="1.5" stroke-linecap="round" stroke-linejoin="round"/>
</svg>
