<svg width="30" height="30" viewBox="0 0 30 30" fill="none" xmlns="http://www.w3.org/2000/svg">
<path d="M15 8.04999V12.2125" stroke="#2D2D2D" stroke-width="2" stroke-miterlimit="10" stroke-linecap="round"/>
<path d="M15.025 2.5C10.425 2.5 6.69999 6.225 6.69999 10.825V13.45C6.69999 14.3 6.34999 15.575 5.91249 16.3L4.32499 18.95C3.34999 20.5875 4.02499 22.4125 5.82499 23.0125C11.8 25 18.2625 25 24.2375 23.0125C25.925 22.45 26.65 20.475 25.7375 18.95L24.15 16.3C23.7125 15.575 23.3625 14.2875 23.3625 13.45V10.825C23.35 6.25 19.6 2.5 15.025 2.5Z" stroke="#2D2D2D" stroke-width="2" stroke-miterlimit="10" stroke-linecap="round"/>
<path d="M19.1625 23.525C19.1625 25.8125 17.2875 27.6875 15 27.6875C13.8625 27.6875 12.8125 27.2125 12.0625 26.4625C11.3125 25.7125 10.8375 24.6625 10.8375 23.525" stroke="#2D2D2D" stroke-width="2" stroke-miterlimit="10"/>
<circle cx="23.2" cy="7.2" r="3.7" fill="#EB1B24" stroke="#EB1B24"/>
</svg>
