<svg width="22" height="22" viewBox="0 0 22 22" fill="none" xmlns="http://www.w3.org/2000/svg">
<path d="M12.1 19.5891C11.495 20.3958 10.505 20.3958 9.9 19.5891L8.525 17.7558C8.36917 17.5541 8.03918 17.3891 7.79168 17.3891H7.33334C3.66668 17.3891 1.83334 16.4725 1.83334 11.8891V7.30579C1.83334 3.63912 3.66668 1.80579 7.33334 1.80579H14.6667C18.3333 1.80579 20.1667 3.63912 20.1667 7.30579V11.8891" stroke="#2D2D2D" stroke-width="1.5" stroke-miterlimit="10" stroke-linecap="round" stroke-linejoin="round"/>
<path d="M16.6833 19.6167C18.3034 19.6167 19.6167 18.3034 19.6167 16.6833C19.6167 15.0633 18.3034 13.75 16.6833 13.75C15.0633 13.75 13.75 15.0633 13.75 16.6833C13.75 18.3034 15.0633 19.6167 16.6833 19.6167Z" stroke="#2D2D2D" stroke-width="1.5" stroke-linecap="round" stroke-linejoin="round"/>
<path d="M20.1667 20.1667L19.25 19.25" stroke="#2D2D2D" stroke-width="1.5" stroke-linecap="round" stroke-linejoin="round"/>
<path d="M14.6634 10.0833H14.6716" stroke="#2D2D2D" stroke-width="2" stroke-linecap="round" stroke-linejoin="round"/>
<path d="M10.9959 10.0833H11.0041" stroke="#2D2D2D" stroke-width="2" stroke-linecap="round" stroke-linejoin="round"/>
<path d="M7.3283 10.0833H7.33653" stroke="#2D2D2D" stroke-width="2" stroke-linecap="round" stroke-linejoin="round"/>
</svg>
