<svg width="26" height="26" viewBox="0 0 26 26" fill="none" xmlns="http://www.w3.org/2000/svg">
<path d="M13 19C12.4533 19 12 18.6978 12 18.3333V15.6667C12 15.3022 12.4533 15 13 15C13.5467 15 14 15.3022 14 15.6667V18.3333C14 18.6978 13.5467 19 13 19Z" fill="#2D2D2D"/>
<path d="M18.2115 23H7.79449C6.10172 23 4.55776 21.6752 4.27873 19.9813L3.04171 12.4393C2.83709 11.2659 3.40445 9.76131 4.32524 9.01373L10.7708 3.76179C12.0171 2.73978 13.9796 2.74925 15.2352 3.77125L21.6808 9.01373C22.5923 9.76131 23.1503 11.2659 22.9643 12.4393L21.7273 19.9719C21.4483 21.6468 19.8671 23 18.2115 23ZM12.9937 4.42419C12.5008 4.42419 12.0078 4.5756 11.6451 4.86895L5.19953 10.1304C4.67867 10.5562 4.30664 11.5403 4.41825 12.2122L5.65527 19.7447C5.82269 20.7384 6.79929 21.5806 7.79449 21.5806H18.2115C19.2067 21.5806 20.1833 20.7384 20.3508 19.7353L21.5878 12.2028C21.6901 11.5403 21.3181 10.5373 20.8065 10.1209L14.361 4.87842C13.9889 4.5756 13.4867 4.42419 12.9937 4.42419Z" fill="#2D2D2D"/>
</svg>
