<svg width="26" height="26" viewBox="0 0 26 26" fill="none" xmlns="http://www.w3.org/2000/svg">
<path d="M10 16H5.7991C4.8096 16 4 16.7875 4 17.75V23H10V16Z" stroke="#2D2D2D" stroke-width="1.5" stroke-miterlimit="10" stroke-linecap="round" stroke-linejoin="round"/>
<path d="M14.2009 12H11.7991C10.8096 12 10 12.825 10 13.8333V23H16V13.8333C16 12.825 15.1994 12 14.2009 12Z" stroke="#2D2D2D" stroke-width="1.5" stroke-miterlimit="10" stroke-linecap="round" stroke-linejoin="round"/>
<path d="M20.2009 19H16V23H22V20.6C22 19.72 21.1904 19 20.2009 19Z" stroke="#2D2D2D" stroke-width="1.5" stroke-miterlimit="10" stroke-linecap="round" stroke-linejoin="round"/>
<path d="M13.5206 3.43016L14.0498 4.49983C14.1196 4.65119 14.3094 4.79247 14.4691 4.81265L15.4276 4.97412C16.0366 5.07503 16.1864 5.52911 15.7471 5.96304L14.9983 6.71988C14.8685 6.85106 14.7986 7.09326 14.8385 7.26481L15.0482 8.19322C15.2179 8.92988 14.8285 9.21244 14.1895 8.82897L13.2909 8.29414C13.1312 8.19323 12.8616 8.19323 12.7019 8.29414L11.8033 8.82897C11.1643 9.21244 10.7749 8.92988 10.9446 8.19322L11.1543 7.26481C11.1942 7.09326 11.1243 6.84097 10.9945 6.71988L10.2557 5.97314C9.81638 5.52912 9.95616 5.0851 10.5752 4.98419L11.5337 4.82275C11.6934 4.79248 11.8831 4.6512 11.953 4.50993L12.4822 3.44023C12.7718 2.85494 13.231 2.85496 13.5206 3.43016Z" stroke="#2D2D2D" stroke-width="1.5" stroke-linecap="round" stroke-linejoin="round"/>
</svg>
