<svg width="26" height="26" viewBox="0 0 26 26" fill="none" xmlns="http://www.w3.org/2000/svg">
<path d="M12.5 16.0002L9.5 13.0002M12.5 16.0002C13.8968 15.469 15.2369 14.799 16.5 14.0002M12.5 16.0002V21.0002C12.5 21.0002 15.53 20.4502 16.5 19.0002C17.58 17.3802 16.5 14.0002 16.5 14.0002M9.5 13.0002C10.0321 11.6197 10.7022 10.2963 11.5 9.05025C12.6652 7.18723 14.2876 5.6533 16.213 4.59434C18.1384 3.53538 20.3027 2.98662 22.5 3.00025C22.5 5.72025 21.72 10.5002 16.5 14.0002M9.5 13.0002H4.5C4.5 13.0002 5.05 9.97025 6.5 9.00025C8.12 7.92025 11.5 9.00025 11.5 9.00025M5 17.5002C3.5 18.7602 3 22.5002 3 22.5002C3 22.5002 6.74 22.0002 8 20.5002C8.71 19.6602 8.7 18.3702 7.91 17.5902C7.52131 17.2193 7.00929 17.0049 6.47223 16.9883C5.93516 16.9717 5.41088 17.154 5 17.5002Z" stroke="#2D2D2D" stroke-width="1.5" stroke-linecap="round" stroke-linejoin="round"/>
</svg>
